<svg id="visual" viewBox="0 0 960 50" width="960" height="50" xmlns="http://www.w3.org/2000/svg" xmlns:xlink="http://www.w3.org/1999/xlink" version="1.1"><rect x="0" y="0" width="960" height="50" fill="#181818"></rect><path d="M0 28L12.3 28.2C24.7 28.3 49.3 28.7 74 28.5C98.7 28.3 123.3 27.7 148 28.5C172.7 29.3 197.3 31.7 221.8 32.8C246.3 34 270.7 34 295.2 32.8C319.7 31.7 344.3 29.3 369 29C393.7 28.7 418.3 30.3 443 32.3C467.7 34.3 492.3 36.7 517 36.3C541.7 36 566.3 33 591 32.2C615.7 31.3 640.3 32.7 664.8 33C689.3 33.3 713.7 32.7 738.2 33.8C762.7 35 787.3 38 812 38C836.7 38 861.3 35 886 34.7C910.7 34.3 935.3 36.7 947.7 37.8L960 39L960 0L947.7 0C935.3 0 910.7 0 886 0C861.3 0 836.7 0 812 0C787.3 0 762.7 0 738.2 0C713.7 0 689.3 0 664.8 0C640.3 0 615.7 0 591 0C566.3 0 541.7 0 517 0C492.3 0 467.7 0 443 0C418.3 0 393.7 0 369 0C344.3 0 319.7 0 295.2 0C270.7 0 246.3 0 221.8 0C197.3 0 172.7 0 148 0C123.3 0 98.7 0 74 0C49.3 0 24.7 0 12.3 0L0 0Z" fill="#e8e8e8"></path><path d="M0 31L12.3 30.2C24.7 29.3 49.3 27.7 74 26.7C98.7 25.7 123.3 25.3 148 26.5C172.7 27.7 197.3 30.3 221.8 30.2C246.3 30 270.7 27 295.2 26.2C319.7 25.3 344.3 26.7 369 28.3C393.7 30 418.3 32 443 31.8C467.7 31.7 492.3 29.3 517 27.8C541.7 26.3 566.3 25.7 591 24.8C615.7 24 640.3 23 664.8 22.3C689.3 21.7 713.7 21.3 738.2 23C762.7 24.7 787.3 28.3 812 30C836.7 31.7 861.3 31.3 886 31.5C910.7 31.7 935.3 32.3 947.7 32.7L960 33L960 0L947.7 0C935.3 0 910.7 0 886 0C861.3 0 836.7 0 812 0C787.3 0 762.7 0 738.2 0C713.7 0 689.3 0 664.8 0C640.3 0 615.7 0 591 0C566.3 0 541.7 0 517 0C492.3 0 467.7 0 443 0C418.3 0 393.7 0 369 0C344.3 0 319.7 0 295.2 0C270.7 0 246.3 0 221.8 0C197.3 0 172.7 0 148 0C123.3 0 98.7 0 74 0C49.3 0 24.7 0 12.3 0L0 0Z" fill="#c6c6c6"></path><path d="M0 23L12.3 23.5C24.7 24 49.3 25 74 24.7C98.7 24.3 123.3 22.7 148 22.2C172.7 21.7 197.3 22.3 221.8 22.2C246.3 22 270.7 21 295.2 20.2C319.7 19.3 344.3 18.7 369 19C393.7 19.3 418.3 20.7 443 22C467.7 23.3 492.3 24.7 517 24.3C541.7 24 566.3 22 591 21C615.7 20 640.3 20 664.8 20.8C689.3 21.7 713.7 23.3 738.2 22.5C762.7 21.7 787.3 18.3 812 17.8C836.7 17.3 861.3 19.7 886 20C910.7 20.3 935.3 18.7 947.7 17.8L960 17L960 0L947.7 0C935.3 0 910.7 0 886 0C861.3 0 836.7 0 812 0C787.3 0 762.7 0 738.2 0C713.7 0 689.3 0 664.8 0C640.3 0 615.7 0 591 0C566.3 0 541.7 0 517 0C492.3 0 467.7 0 443 0C418.3 0 393.7 0 369 0C344.3 0 319.7 0 295.2 0C270.7 0 246.3 0 221.8 0C197.3 0 172.7 0 148 0C123.3 0 98.7 0 74 0C49.3 0 24.7 0 12.3 0L0 0Z" fill="#a5a5a5"></path><path d="M0 10L12.3 11.5C24.7 13 49.3 16 74 17.3C98.7 18.7 123.3 18.3 148 17C172.7 15.7 197.3 13.3 221.8 13.2C246.3 13 270.7 15 295.2 15.8C319.7 16.7 344.3 16.3 369 15.5C393.7 14.7 418.3 13.3 443 12.8C467.7 12.3 492.3 12.7 517 13C541.7 13.3 566.3 13.7 591 14C615.7 14.3 640.3 14.7 664.8 14.3C689.3 14 713.7 13 738.2 13.7C762.7 14.3 787.3 16.7 812 17.3C836.7 18 861.3 17 886 16.7C910.7 16.3 935.3 16.7 947.7 16.8L960 17L960 0L947.7 0C935.3 0 910.7 0 886 0C861.3 0 836.7 0 812 0C787.3 0 762.7 0 738.2 0C713.7 0 689.3 0 664.8 0C640.3 0 615.7 0 591 0C566.3 0 541.7 0 517 0C492.3 0 467.7 0 443 0C418.3 0 393.7 0 369 0C344.3 0 319.7 0 295.2 0C270.7 0 246.3 0 221.8 0C197.3 0 172.7 0 148 0C123.3 0 98.7 0 74 0C49.3 0 24.7 0 12.3 0L0 0Z" fill="#858585"></path><path d="M0 10L12.3 10.2C24.7 10.3 49.3 10.7 74 10.3C98.7 10 123.3 9 148 9C172.7 9 197.3 10 221.8 9.5C246.3 9 270.7 7 295.2 6.2C319.7 5.3 344.3 5.7 369 6.5C393.7 7.3 418.3 8.7 443 9.3C467.7 10 492.3 10 517 9.8C541.7 9.7 566.3 9.3 591 9.2C615.7 9 640.3 9 664.8 8C689.3 7 713.7 5 738.2 4.5C762.7 4 787.3 5 812 5.8C836.7 6.7 861.3 7.3 886 8C910.7 8.7 935.3 9.3 947.7 9.7L960 10L960 0L947.7 0C935.3 0 910.7 0 886 0C861.3 0 836.7 0 812 0C787.3 0 762.7 0 738.2 0C713.7 0 689.3 0 664.8 0C640.3 0 615.7 0 591 0C566.3 0 541.7 0 517 0C492.3 0 467.7 0 443 0C418.3 0 393.7 0 369 0C344.3 0 319.7 0 295.2 0C270.7 0 246.3 0 221.8 0C197.3 0 172.7 0 148 0C123.3 0 98.7 0 74 0C49.3 0 24.7 0 12.3 0L0 0Z" fill="#676767"></path></svg>