<svg id="visual" viewBox="0 0 960 300" width="960" height="300" xmlns="http://www.w3.org/2000/svg" xmlns:xlink="http://www.w3.org/1999/xlink" version="1.1"><rect x="0" y="0" width="960" height="300" fill="#181818"></rect><path d="M0 90L22.8 89.7C45.7 89.3 91.3 88.7 137 88.8C182.7 89 228.3 90 274 89.2C319.7 88.3 365.3 85.7 411.2 85C457 84.3 503 85.7 548.8 86.7C594.7 87.7 640.3 88.3 686 92C731.7 95.7 777.3 102.3 823 100.3C868.7 98.3 914.3 87.7 937.2 82.3L960 77L960 0L937.2 0C914.3 0 868.7 0 823 0C777.3 0 731.7 0 686 0C640.3 0 594.7 0 548.8 0C503 0 457 0 411.2 0C365.3 0 319.7 0 274 0C228.3 0 182.7 0 137 0C91.3 0 45.7 0 22.8 0L0 0Z" fill="#e8e8e8"></path><path d="M0 85L22.8 84.7C45.7 84.3 91.3 83.7 137 83C182.7 82.3 228.3 81.7 274 78C319.7 74.3 365.3 67.7 411.2 64C457 60.3 503 59.7 548.8 62.2C594.7 64.7 640.3 70.3 686 73.5C731.7 76.7 777.3 77.3 823 76.8C868.7 76.3 914.3 74.7 937.2 73.8L960 73L960 0L937.2 0C914.3 0 868.7 0 823 0C777.3 0 731.7 0 686 0C640.3 0 594.7 0 548.8 0C503 0 457 0 411.2 0C365.3 0 319.7 0 274 0C228.3 0 182.7 0 137 0C91.3 0 45.7 0 22.8 0L0 0Z" fill="#bbbbbb"></path><path d="M0 56L22.8 54.7C45.7 53.3 91.3 50.7 137 47.7C182.7 44.7 228.3 41.3 274 41C319.7 40.7 365.3 43.3 411.2 45.7C457 48 503 50 548.8 50.3C594.7 50.7 640.3 49.3 686 48.5C731.7 47.7 777.3 47.3 823 48.5C868.7 49.7 914.3 52.3 937.2 53.7L960 55L960 0L937.2 0C914.3 0 868.7 0 823 0C777.3 0 731.7 0 686 0C640.3 0 594.7 0 548.8 0C503 0 457 0 411.2 0C365.3 0 319.7 0 274 0C228.3 0 182.7 0 137 0C91.3 0 45.7 0 22.8 0L0 0Z" fill="#909090"></path><path d="M0 27L22.8 28.5C45.7 30 91.3 33 137 33.5C182.7 34 228.3 32 274 29.5C319.7 27 365.3 24 411.2 25C457 26 503 31 548.8 32.2C594.7 33.3 640.3 30.7 686 29.8C731.7 29 777.3 30 823 31.5C868.7 33 914.3 35 937.2 36L960 37L960 0L937.2 0C914.3 0 868.7 0 823 0C777.3 0 731.7 0 686 0C640.3 0 594.7 0 548.8 0C503 0 457 0 411.2 0C365.3 0 319.7 0 274 0C228.3 0 182.7 0 137 0C91.3 0 45.7 0 22.8 0L0 0Z" fill="#676767"></path></svg>